<svg viewBox="0 0 80 80" fill="none" xmlns="http://www.w3.org/2000/svg">
  <g transform="translate(2,2)">
    <path d="M8.2,38 A30,30 0 0,1 38,8.2" stroke="#1a3a5c" stroke-width="4" stroke-linecap="round" fill="none" />
    <path d="M38,69.8 A30,30 0 0,1 8.2,38" stroke="#1a3a5c" stroke-width="4" stroke-linecap="round" fill="none" />
    <path d="M69.8,38 A30,30 0 0,1 38,69.8" stroke="#1a3a5c" stroke-width="4" stroke-linecap="round" fill="none" />
    <path d="M38,8.2 A30,30 0 0,1 69.8,38" stroke="#e8614a" stroke-width="4" stroke-linecap="round" fill="none" />
    <path d="M13,52 A26,26 0 0,1 11,44" stroke="#e8614a" stroke-width="2.5" stroke-linecap="round" fill="none" opacity=".8" />
    <circle cx="38" cy="8" r="3.2" fill="#1a3a5c" />
    <circle cx="69.8" cy="38" r="3.2" fill="#e8614a" />
    <circle cx="8" cy="38" r="3.2" fill="#1a3a5c" />
    <circle cx="38" cy="70" r="3.2" fill="#1a3a5c" />
    <polygon points="38,9 49,43 38,37 27,43" fill="url(#fav-grad)" />
    <defs>
      <linearGradient id="fav-grad" x1="0" y1="0" x2="0" y2="1">
        <stop offset="0%" stop-color="#e8614a" />
        <stop offset="100%" stop-color="#d4553f" />
      </linearGradient>
    </defs>
  </g>
</svg>
